<svg enable-background="new 0 0 492 110" height="64" viewBox="0 0 64 64" width="64" xmlns="http://www.w3.org/2000/svg"><g transform="matrix(3.1335045 0 0 3.1335045 -.000003 -68.272144)"><path d="m19.978698 27.083982c-.235969-.878329-.930766-1.573126-1.809095-1.809095-1.586235-.432609-7.970504-.432609-7.970504-.432609s-6.3842681.01311-7.9705033.445718c-.8783285.235969-1.57312567.930767-1.80909453 1.809095-.41950019 1.586235-.41950019 4.902909-.41950019 4.902909s0 3.316673.43260957 4.916017c.23596886.878329.93076605 1.573126 1.80909455 1.809095 1.5862351.43261 7.9705039.43261 7.9705039.43261s6.384268 0 7.970503-.43261c.878329-.235969 1.573126-.930766 1.809095-1.809095.43261-1.586235.43261-4.916017.43261-4.916017s-.01311-3.316674-.445719-4.916018z" fill="#f00" stroke-width=".131094"/><path d="m64.2 78.4 40.4-23.4-40.4-23.4z" fill="#fff" transform="matrix(.13109381 0 0 .13109381 -.249077 24.78984)"/></g></svg>